<?xml version="1.0" encoding="UTF-8" standalone="no"?>
<svg
   height="24"
   viewBox="0 -960 960 960"
   width="24"
   fill="#e3e3e3"
   version="1.1"
   id="svg1"
   xmlns="http://www.w3.org/2000/svg"
   xmlns:svg="http://www.w3.org/2000/svg">
  <defs
     id="defs1" />
  <path
     d="m 234,-276 q 51,-39 114,-61.5 63,-22.5 132,-22.5 69,0 132,22.5 63,22.5 114,61.5 35,-41 54.5,-93 19.5,-52 19.5,-111 0,-133 -93.5,-226.5 Q 613,-800 480,-800 347,-800 253.5,-706.5 160,-613 160,-480 q 0,59 19.5,111 19.5,52 54.5,93 z M 380.5,-480.5 Q 340,-521 340,-580 q 0,-59 40.5,-99.5 40.5,-40.5 99.5,-40.5 59,0 99.5,40.5 40.5,40.5 40.5,99.5 0,59 -40.5,99.5 -40.5,40.5 -99.5,40.5 -59,0 -99.5,-40.5 z M 480,-80 Q 397,-80 324,-111.5 251,-143 197,-197 143,-251 111.5,-324 80,-397 80,-480 q 0,-83 31.5,-156 31.5,-73 85.5,-127 54,-54 127,-85.5 73,-31.5 156,-31.5 83,0 156,31.5 73,31.5 127,85.5 54,54 85.5,127 31.5,73 31.5,156 0,83 -31.5,156 -31.5,73 -85.5,127 -54,54 -127,85.5 Q 563,-80 480,-80 Z m 100,-95.5 q 47,-15.5 86,-44.5 -39,-29 -86,-44.5 -47,-15.5 -100,-15.5 -53,0 -100,15.5 -47,15.5 -86,44.5 39,29 86,44.5 47,15.5 100,15.5 53,0 100,-15.5 z M 523,-537 q 17,-17 17,-43 0,-26 -17,-43 -17,-17 -43,-17 -26,0 -43,17 -17,17 -17,43 0,26 17,43 17,17 43,17 26,0 43,-17 z m -43,-43 z m 0,360 z"
     id="path1" />
  <path
     style="fill:#1a1a1a;stroke-width:1.24192"
     d="M 450.19404,-81.48068 C 375.8761,-88.04416 313.64856,-110.10456 253.35058,-151.264 178.55563,-202.31908 121.93164,-280.5492 96.28184,-368.26572 c -17.40006,-59.50432 -20.261212,-127.6904 -8.006292,-190.80352 11.63766,-59.93416 40.532202,-121.42435 80.728492,-171.79751 13.20482,-16.54801 42.76261,-46.24925 58.88729,-59.17309 58.82275,-47.14611 126.77899,-76.31148 201.19019,-86.34656 23.666,-3.1916 78.17096,-3.1916 101.83696,0 61.76056,8.32901 118.88916,29.73565 169.54348,63.52956 25.48764,17.00402 40.25236,29.07007 61.53888,50.29089 64.609,64.40956 103.86704,145.27293 114.87328,236.61511 2.8268,23.45916 2.8324,68.36236 0.0115,91.90168 -5.65084,47.15508 -17.30196,86.71184 -38.04276,129.15912 -58.94672,120.63812 -173.26584,203.06208 -306.68244,221.11768 -13.64924,1.8472 -69.36204,3.4048 -81.96636,2.2916 z m 50.29756,-78.77956 c 49.37984,-3.3312 92.24772,-15.51768 131.64296,-37.42312 14.15496,-7.8708 34.06596,-20.9024 34.12112,-22.33204 0.08,-2.1 -28.70872,-19.69152 -46.54028,-28.43744 -31.34944,-15.37608 -59.88564,-24.11616 -95.62744,-29.28868 -20.74872,-3.0028 -67.48928,-2.9976 -88.17592,0.01 -35.26636,5.12692 -65.14597,14.26788 -95.62744,29.255 -17.78991,8.74692 -46.57922,26.34268 -46.56712,28.46136 0.007,1.1916 21.16494,15.05756 34.14798,22.37888 36.78126,20.74148 83.47054,34.22684 129.16774,37.30784 21.50156,1.4496 22.95084,1.452 43.4584,0.068 z M 255.14341,-289.97588 c 37.13702,-24.89308 83.13909,-45.76392 124.39665,-56.43788 35.20542,-9.10824 62.46186,-12.49956 100.45994,-12.49956 37.99808,0 65.25452,3.3912 100.45992,12.49956 43.76744,11.32332 84.80612,30.0458 125.51288,57.26084 l 20.43592,13.66272 3.4464,-4.14364 c 8.13588,-9.78172 21.72652,-29.7384 29.54132,-43.37888 19.91284,-34.75716 32.87524,-73.38792 38.71628,-115.38316 2.5548,-18.36696 2.1968,-68.89024 -0.6288,-88.79688 -6.58832,-46.41637 -23.01592,-90.09813 -48.03348,-127.72364 -13.89128,-20.89202 -26.52968,-35.88261 -47.30272,-56.1066 -47.8466,-46.58186 -102.70352,-74.5677 -166.81468,-85.10224 -21.7254,-3.56985 -51.6442,-5.01498 -75.52916,-3.64821 -79.03106,4.52241 -145.30668,33.64553 -201.9698,88.75045 -53.61267,52.13836 -83.63298,109.1953 -94.76134,180.10452 -2.26692,14.44456 -2.73844,22.74584 -2.78648,49.0556 -0.0363,19.90532 0.55504,36.05132 1.59208,43.467 8.08592,57.82096 28.80618,107.46456 63.88673,153.066 4.07233,5.29364 7.55814,9.62484 7.74623,9.62484 0.188,0 9.92254,-6.42188 21.63211,-14.27084 z"
     id="path2" />
  <path
     style="fill:#1a1a1a;stroke-width:1.24192"
     d="m 454.21148,-442.7394 c -43.08984,-7.81088 -79.77633,-35.31572 -99.39361,-74.51804 -9.41895,-18.82244 -13.91231,-39.07848 -13.91231,-62.71669 0,-39.8888 12.8489,-71.44179 40.25077,-98.84366 27.40187,-27.40188 58.95487,-40.25077 98.84367,-40.25077 39.86248,0 71.8626,13.0196 98.7966,40.19647 22.43588,22.63823 34.60244,46.8154 39.12568,77.74999 2.3156,15.83571 0.91,42.48326 -3.0476,57.78446 -11.4788,44.38008 -48.0504,83.14544 -90.72952,96.17188 -20.3472,6.21036 -49.80608,8.07492 -69.9338,4.42636 z m 36.96576,-77.65848 c 18.1448,-2.8296 35.76148,-16.00572 43.47652,-32.51792 7.90392,-16.91644 7.677,-38.19667 -0.5872,-55.07666 -17.3856,-35.51046 -67.20072,-43.71652 -96.38668,-15.87781 -29.56768,28.20279 -21.97756,80.19343 14.30188,97.96487 12.5816,6.16308 24.36956,7.81944 39.19556,5.50752 z"
     id="path3" />
</svg>
