<?xml version="1.0" encoding="UTF-8" standalone="no"?>
<svg
   height="24"
   viewBox="0 -960 960 960"
   width="24"
   fill="#e3e3e3"
   version="1.1"
   id="svg1"
   sodipodi:docname="edit_24dp_E3E3E3_FILL0_wght400_GRAD0_opsz24.svg"
   xmlns:inkscape="http://www.inkscape.org/namespaces/inkscape"
   xmlns:sodipodi="http://sodipodi.sourceforge.net/DTD/sodipodi-0.dtd"
   xmlns="http://www.w3.org/2000/svg"
   xmlns:svg="http://www.w3.org/2000/svg">
  <defs
     id="defs1" />
  <sodipodi:namedview
     id="namedview1"
     pagecolor="#ffffff"
     bordercolor="#000000"
     borderopacity="0.25"
     inkscape:showpageshadow="2"
     inkscape:pageopacity="0.0"
     inkscape:pagecheckerboard="0"
     inkscape:deskcolor="#d1d1d1">
    <inkscape:page
       x="0"
       y="0"
       width="960"
       height="960"
       id="page2"
       margin="0"
       bleed="0" />
  </sodipodi:namedview>
  <path
     d="m 200,-200 h 57 l 391,-391 -57,-57 -391,391 z m -80,80 v -170 l 528,-527 q 12,-11 26.5,-17 14.5,-6 30.5,-6 16,0 31,6 15,6 26,18 l 55,56 q 12,11 17.5,26 5.5,15 5.5,30 0,16 -5.5,30.5 Q 829,-659 817,-647 l -527,527 z m 640,-584 -56,-56 z m -141,85 -28,-29 57,57 z"
     id="path1" />
  <path
     style="fill:#ffffff;stroke-width:1.24192"
     d="m 121.08668,-205.35072 v -84.88504 L 385.98096,-554.7306 c 172.8908,-172.6301 267.60312,-266.33439 272.69344,-269.79116 10.52632,-7.14829 19.09908,-10.77051 31.38024,-13.259 19.48288,-3.94772 42.3432,0.40436 58.5178,11.14044 8.88948,5.9005 74.66024,73.25179 80.01552,81.93838 9.74616,15.80886 13.051,41.90098 7.87204,62.15062 -5.3794,21.03314 15.54392,-1.00024 -278.73352,293.52156 l -268.34122,268.56404 h -84.1493 -84.14928 z M 453.615,-395.245 648.90884,-590.54179 619.7154,-619.7154 590.52196,-648.889 394.92463,-453.2946 199.3273,-257.70024 v 28.876 28.876 h 29.49695 29.49695 z"
     id="path2" />
</svg>
