<?xml version="1.0" encoding="UTF-8" standalone="no"?>
<svg
   height="24"
   viewBox="0 -960 960 960"
   width="24"
   fill="#e3e3e3"
   version="1.1"
   id="svg1"
   sodipodi:docname="FilterImage.svg"
   xmlns:inkscape="http://www.inkscape.org/namespaces/inkscape"
   xmlns:sodipodi="http://sodipodi.sourceforge.net/DTD/sodipodi-0.dtd"
   xmlns="http://www.w3.org/2000/svg"
   xmlns:svg="http://www.w3.org/2000/svg">
  <defs
     id="defs1" />
  <sodipodi:namedview
     id="namedview1"
     pagecolor="#ffffff"
     bordercolor="#000000"
     borderopacity="0.25"
     inkscape:showpageshadow="2"
     inkscape:pageopacity="0.0"
     inkscape:pagecheckerboard="0"
     inkscape:deskcolor="#d1d1d1">
    <inkscape:page
       x="0"
       y="0"
       width="960"
       height="960"
       id="page2"
       margin="0"
       bleed="0" />
  </sodipodi:namedview>
  <path
     d="m 440,-160 q -17,0 -28.5,-11.5 Q 400,-183 400,-200 V -440 L 168,-736 q -15,-20 -4.5,-42 10.5,-22 36.5,-22 h 560 q 26,0 36.5,22 10.5,22 -4.5,42 l -232,296 v 240 q 0,17 -11.5,28.5 Q 537,-160 520,-160 Z m 40,-308 198,-252 H 282 Z m 0,0 z"
     id="path1" />
  <path
     style="fill:#000000;stroke-width:1.24192"
     d="m 429.3128,-162.1464 c -8.29188,-2.2316 -16.22332,-7.6334 -21.25636,-14.47724 -7.8166,-10.62896 -7.53896,-5.44948 -7.53896,-140.64648 V -440.3508 L 284.11519,-588.71356 c -64.02125,-81.59952 -117.96191,-151.4365 -119.86815,-155.1933 -4.56568,-8.998 -5.52205,-17.51505 -2.95738,-26.3372 4.46526,-15.35994 15.32876,-25.66708 29.6881,-28.16765 11.24466,-1.95816 566.7998,-1.95816 578.04448,0 14.35932,2.50056 25.22284,12.80771 29.68808,28.16765 2.4644,8.47704 1.6776,16.67738 -2.4464,25.50161 -1.7476,3.73988 -51.84416,68.6954 -119.89192,155.45328 l -116.88956,149.02909 v 123.03528 c 0,134.82568 0.252,130.04328 -7.3686,140.56144 -4.9178,6.78884 -13.22996,12.30484 -21.97468,14.58256 -10.14968,2.6436 -90.95448,2.5912 -100.82644,-0.064 z m 150.74688,-432.15988 98.517,-125.38324 -99.28832,-0.318 c -54.6086,-0.1748 -143.94692,-0.1748 -198.52964,0 l -99.24129,0.318 98.82507,125.7791 c 54.35378,69.1785 99.35946,125.60094 100.01262,125.38322 0.6532,-0.216 45.52024,-56.81828 99.70456,-125.77908 z"
     id="path2" />
</svg>
