<?xml version="1.0" encoding="UTF-8" standalone="no"?>
<svg
   height="24px"
   viewBox="0 -960 960 960"
   width="24px"
   fill="#e3e3e3"
   version="1.1"
   id="svg1"
   sodipodi:docname="FolderWhite.svg"
   inkscape:version="1.4.2 (f4327f4, 2025-05-13)"
   xmlns:inkscape="http://www.inkscape.org/namespaces/inkscape"
   xmlns:sodipodi="http://sodipodi.sourceforge.net/DTD/sodipodi-0.dtd"
   xmlns="http://www.w3.org/2000/svg"
   xmlns:svg="http://www.w3.org/2000/svg">
  <defs
     id="defs1" />
  <sodipodi:namedview
     id="namedview1"
     pagecolor="#ffffff"
     bordercolor="#000000"
     borderopacity="0.25"
     inkscape:showpageshadow="2"
     inkscape:pageopacity="0.0"
     inkscape:pagecheckerboard="0"
     inkscape:deskcolor="#d1d1d1"
     inkscape:zoom="32.208333"
     inkscape:cx="11.968952"
     inkscape:cy="11.968952"
     inkscape:window-width="1920"
     inkscape:window-height="991"
     inkscape:window-x="-9"
     inkscape:window-y="-9"
     inkscape:window-maximized="1"
     inkscape:current-layer="svg1" />
  <path
     d="M160-160q-33 0-56.5-23.5T80-240v-480q0-33 23.5-56.5T160-800h240l80 80h320q33 0 56.5 23.5T880-640v400q0 33-23.5 56.5T800-160H160Zm0-80h640v-400H447l-80-80H160v480Zm0 0v-480 480Z"
     id="path1" />
  <path
     style="fill:#000000;stroke-width:0.0310479"
     d="M 3.6916567,19.964097 C 2.9573498,19.855378 2.27722,19.240547 2.072802,18.500667 2.0214093,18.314654 2.0181113,17.922643 2.0181113,12 c 0,-5.9226434 0.0033,-6.3146537 0.054691,-6.5006669 0.1789886,-0.6478408 0.71653,-1.1976017 1.3890347,-1.4206109 0.1600243,-0.053066 0.3708986,-0.057214 3.3531695,-0.065962 l 3.1824062,-0.00934 1.0088763,1.0099309 1.008877,1.0099308 4.129545,4.589e-4 c 4.539574,5.045e-4 4.320385,-0.00832 4.723407,0.1900908 0.396917,0.1954017 0.778345,0.5924706 0.954156,0.993284 0.167361,0.3815475 0.159615,0.099961 0.159615,5.8019368 0,4.959129 -0.0035,5.30617 -0.05469,5.491611 -0.179853,0.650969 -0.709888,1.19332 -1.389035,1.421309 -0.164198,0.05512 -0.488256,0.05748 -8.429495,0.06144 -4.5423032,0.0023 -8.3299581,-0.0064 -8.4170113,-0.01932 z M 20.010349,12.993532 V 7.9793014 h -4.416741 -4.41674 L 10.1837,6.9857697 9.1905321,5.992238 H 6.5900914 3.9896507 V 12 18.007762 H 12 20.010349 Z"
     id="path2"
     transform="matrix(40,0,0,40,0,-960)" />
  <path
     style="fill:#ffffff;stroke-width:0.0310479"
     d="M 3.5482011,19.915562 C 3.1753699,19.825176 2.7413126,19.544648 2.4797732,19.225046 2.400028,19.127597 2.2791283,18.932339 2.2111071,18.79114 2.0988428,18.5581 2.085116,18.502242 2.0623256,18.185707 2.0295622,17.730655 2.0295622,6.2693455 2.0623256,5.8142935 2.085116,5.497758 2.0988428,5.4418997 2.2111071,5.2088601 2.2791283,5.0676611 2.400028,4.8724036 2.4797732,4.7749547 2.7763577,4.4125273 3.2766548,4.1150154 3.6698641,4.0672429 3.7859796,4.0531355 5.2536053,4.0368919 6.9312544,4.0311459 l 3.0502712,-0.010447 1.0014754,0.9979372 1.001475,0.9979372 4.098318,0.020462 c 2.373579,0.011851 4.189782,0.033225 4.315654,0.050788 0.546605,0.076271 1.090307,0.5083579 1.385183,1.1008227 0.121514,0.2441458 0.124757,0.2593239 0.152598,0.7141009 0.03602,0.5883993 0.03663,9.8852061 6.78e-4,10.3194501 -0.02452,0.296123 -0.03889,0.34755 -0.172094,0.615879 -0.205245,0.413447 -0.512881,0.719986 -0.930742,0.927423 -0.286156,0.142055 -0.314708,0.149614 -0.646927,0.17128 -0.191157,0.01247 -3.973172,0.02248 -8.404479,0.02225 -6.7609315,-3.53e-4 -8.0854796,-0.0073 -8.2344639,-0.04346 z M 20.010349,12.993532 V 7.9793015 H 15.609133 11.207916 L 10.214748,6.9857698 9.22158,5.9922381 H 6.6056154 3.9896508 V 12 18.007762 H 12 20.010349 Z"
     id="path3"
     transform="matrix(40,0,0,40,0,-960)" />
</svg>
