<svg width="315" height="252" viewBox="0 0 315 252" fill="none" xmlns="http://www.w3.org/2000/svg">
<path d="M45.6508 246.282C6.681 171.185 -13.949 147.202 12.1387 133.637C76.8279 100 27.0003 17.3716 39.4711 34.3049C90.9043 104.143 372.231 -31.4189 267.787 62.4504C207.141 116.956 355.863 164.928 302.862 230.638C260.462 283.205 141.52 211.08 45.6508 246.282Z" fill="#706F6F" stroke="black"/>
<mask id="path-2-outside-1_28_861" maskUnits="userSpaceOnUse" x="79.6182" y="-0.993408" width="173" height="50" fill="black">
<rect fill="white" x="79.6182" y="-0.993408" width="173" height="50"/>
<path d="M102.384 21.0887L102.082 46.5415L99.0996 46.5061L85.4668 26.3572L85.2183 26.3543L84.9813 46.3387L81.8991 46.3021L82.201 20.8494L85.1837 20.8847L98.8656 41.0839L99.1142 41.0868L99.3517 21.0527L102.384 21.0887ZM152.297 30.6742C152.691 33.3298 152.552 35.6959 151.881 37.7726C151.209 39.8493 150.115 41.5363 148.599 42.8337C147.083 44.1311 145.251 44.9392 143.103 45.2581C140.956 45.577 138.968 45.336 137.141 44.5352C135.313 43.7344 133.776 42.4381 132.53 40.6462C131.283 38.8543 130.463 36.6306 130.069 33.9751C129.675 31.3195 129.813 28.9534 130.485 26.8767C131.157 24.8 132.251 23.113 133.767 21.8156C135.283 20.5182 137.115 19.7101 139.262 19.3912C141.41 19.0723 143.397 19.3133 145.225 20.1141C147.053 20.9149 148.59 22.2112 149.836 24.0031C151.082 25.795 151.902 28.0187 152.297 30.6742ZM149.346 31.1124C149.022 28.9322 148.384 27.1464 147.432 25.7548C146.488 24.362 145.34 23.3723 143.988 22.7857C142.644 22.1978 141.21 22.0171 139.686 22.2434C138.161 22.4698 136.837 23.0601 135.714 24.0143C134.599 24.9673 133.788 26.248 133.282 27.8562C132.783 29.4632 132.696 31.3567 133.019 33.5369C133.343 35.7171 133.977 37.5035 134.921 38.8963C135.873 40.2879 137.021 41.2776 138.365 41.8655C139.717 42.4521 141.155 42.6322 142.68 42.4059C144.204 42.1795 145.524 41.5898 146.639 40.6368C147.762 39.6826 148.573 38.402 149.072 36.795C149.578 35.1868 149.67 33.2926 149.346 31.1124ZM183.827 38.6909L178.736 13.7506L187.163 12.0305C189.111 11.6328 190.779 11.6392 192.165 12.0497C193.549 12.4521 194.66 13.1684 195.496 14.1986C196.332 15.2288 196.9 16.4786 197.2 17.9481C197.5 19.4176 197.465 20.7819 197.097 22.0411C196.728 23.3004 195.989 24.3815 194.879 25.2845C193.768 26.1795 192.246 26.8241 190.314 27.2185L183.494 28.6106L182.937 25.8827L189.66 24.5106C190.991 24.2388 192.023 23.8252 192.755 23.2698C193.496 22.7127 193.976 22.0397 194.195 21.2507C194.421 20.4519 194.432 19.5532 194.228 18.5546C194.025 17.556 193.66 16.7214 193.134 16.0507C192.608 15.3801 191.893 14.9254 190.991 14.6869C190.086 14.4402 188.96 14.4544 187.612 14.7295L182.303 15.8133L186.847 38.0744L183.827 38.6909ZM193.279 25.091L201.704 35.0418L198.197 35.7577L189.869 25.787L193.279 25.091ZM231.132 29.0364L227.966 29.6815L232.043 2.87353L235.161 2.23838L249.401 25.3149L246.234 25.96L234.503 6.48205L234.309 6.52174L231.132 29.0364ZM230.317 19.0552L243.08 16.4551L243.626 19.1344L230.863 21.7345L230.317 19.0552Z"/>
</mask>
<path d="M102.384 21.0887L102.082 46.5415L99.0996 46.5061L85.4668 26.3572L85.2183 26.3543L84.9813 46.3387L81.8991 46.3021L82.201 20.8494L85.1837 20.8847L98.8656 41.0839L99.1142 41.0868L99.3517 21.0527L102.384 21.0887ZM152.297 30.6742C152.691 33.3298 152.552 35.6959 151.881 37.7726C151.209 39.8493 150.115 41.5363 148.599 42.8337C147.083 44.1311 145.251 44.9392 143.103 45.2581C140.956 45.577 138.968 45.336 137.141 44.5352C135.313 43.7344 133.776 42.4381 132.53 40.6462C131.283 38.8543 130.463 36.6306 130.069 33.9751C129.675 31.3195 129.813 28.9534 130.485 26.8767C131.157 24.8 132.251 23.113 133.767 21.8156C135.283 20.5182 137.115 19.7101 139.262 19.3912C141.41 19.0723 143.397 19.3133 145.225 20.1141C147.053 20.9149 148.59 22.2112 149.836 24.0031C151.082 25.795 151.902 28.0187 152.297 30.6742ZM149.346 31.1124C149.022 28.9322 148.384 27.1464 147.432 25.7548C146.488 24.362 145.34 23.3723 143.988 22.7857C142.644 22.1978 141.21 22.0171 139.686 22.2434C138.161 22.4698 136.837 23.0601 135.714 24.0143C134.599 24.9673 133.788 26.248 133.282 27.8562C132.783 29.4632 132.696 31.3567 133.019 33.5369C133.343 35.7171 133.977 37.5035 134.921 38.8963C135.873 40.2879 137.021 41.2776 138.365 41.8655C139.717 42.4521 141.155 42.6322 142.68 42.4059C144.204 42.1795 145.524 41.5898 146.639 40.6368C147.762 39.6826 148.573 38.402 149.072 36.795C149.578 35.1868 149.67 33.2926 149.346 31.1124ZM183.827 38.6909L178.736 13.7506L187.163 12.0305C189.111 11.6328 190.779 11.6392 192.165 12.0497C193.549 12.4521 194.66 13.1684 195.496 14.1986C196.332 15.2288 196.9 16.4786 197.2 17.9481C197.5 19.4176 197.465 20.7819 197.097 22.0411C196.728 23.3004 195.989 24.3815 194.879 25.2845C193.768 26.1795 192.246 26.8241 190.314 27.2185L183.494 28.6106L182.937 25.8827L189.66 24.5106C190.991 24.2388 192.023 23.8252 192.755 23.2698C193.496 22.7127 193.976 22.0397 194.195 21.2507C194.421 20.4519 194.432 19.5532 194.228 18.5546C194.025 17.556 193.66 16.7214 193.134 16.0507C192.608 15.3801 191.893 14.9254 190.991 14.6869C190.086 14.4402 188.96 14.4544 187.612 14.7295L182.303 15.8133L186.847 38.0744L183.827 38.6909ZM193.279 25.091L201.704 35.0418L198.197 35.7577L189.869 25.787L193.279 25.091ZM231.132 29.0364L227.966 29.6815L232.043 2.87353L235.161 2.23838L249.401 25.3149L246.234 25.96L234.503 6.48205L234.309 6.52174L231.132 29.0364ZM230.317 19.0552L243.08 16.4551L243.626 19.1344L230.863 21.7345L230.317 19.0552Z" fill="white"/>
<path d="M102.384 21.0887L104.384 21.1124L104.408 19.1126L102.408 19.0888L102.384 21.0887ZM102.082 46.5415L102.059 48.5413L104.059 48.565L104.082 46.5652L102.082 46.5415ZM99.0996 46.5061L97.4432 47.6269L98.0296 48.4935L99.0759 48.5059L99.0996 46.5061ZM85.4668 26.3572L87.1233 25.2365L86.5369 24.3698L85.4906 24.3574L85.4668 26.3572ZM85.2183 26.3543L85.242 24.3544L83.2421 24.3307L83.2184 26.3306L85.2183 26.3543ZM84.9813 46.3387L84.9576 48.3385L86.9575 48.3622L86.9812 46.3624L84.9813 46.3387ZM81.8991 46.3021L79.8993 46.2784L79.8756 48.2783L81.8754 48.302L81.8991 46.3021ZM82.201 20.8494L82.2247 18.8495L80.2248 18.8258L80.2011 20.8257L82.201 20.8494ZM85.1837 20.8847L86.8396 19.7631L86.2531 18.8973L85.2074 18.8849L85.1837 20.8847ZM98.8656 41.0839L97.2097 42.2055L97.7962 43.0714L98.8419 43.0838L98.8656 41.0839ZM99.1142 41.0868L99.0905 43.0867L101.09 43.1104L101.114 41.1106L99.1142 41.0868ZM99.3517 21.0527L99.3755 19.0529L97.3756 19.0292L97.3519 21.029L99.3517 21.0527ZM102.384 21.0887L100.384 21.065L100.083 46.5177L102.082 46.5415L104.082 46.5652L104.384 21.1124L102.384 21.0887ZM102.082 46.5415L102.106 44.5416L99.1234 44.5062L99.0996 46.5061L99.0759 48.5059L102.059 48.5413L102.082 46.5415ZM99.0996 46.5061L100.756 45.3853L87.1233 25.2365L85.4668 26.3572L83.8104 27.478L97.4432 47.6269L99.0996 46.5061ZM85.4668 26.3572L85.4906 24.3574L85.242 24.3544L85.2183 26.3543L85.1946 28.3541L85.4431 28.3571L85.4668 26.3572ZM85.2183 26.3543L83.2184 26.3306L82.9815 46.315L84.9813 46.3387L86.9812 46.3624L87.2181 26.378L85.2183 26.3543ZM84.9813 46.3387L85.005 44.3388L81.9229 44.3023L81.8991 46.3021L81.8754 48.302L84.9576 48.3385L84.9813 46.3387ZM81.8991 46.3021L83.899 46.3258L84.2008 20.8731L82.201 20.8494L80.2011 20.8257L79.8993 46.2784L81.8991 46.3021ZM82.201 20.8494L82.1772 22.8492L85.16 22.8846L85.1837 20.8847L85.2074 18.8849L82.2247 18.8495L82.201 20.8494ZM85.1837 20.8847L83.5278 22.0064L97.2097 42.2055L98.8656 41.0839L100.522 39.9623L86.8396 19.7631L85.1837 20.8847ZM98.8656 41.0839L98.8419 43.0838L99.0905 43.0867L99.1142 41.0868L99.1379 39.087L98.8893 39.084L98.8656 41.0839ZM99.1142 41.0868L101.114 41.1106L101.352 21.0765L99.3517 21.0527L97.3519 21.029L97.1143 41.0631L99.1142 41.0868ZM99.3517 21.0527L99.328 23.0526L102.36 23.0886L102.384 21.0887L102.408 19.0888L99.3755 19.0529L99.3517 21.0527ZM151.881 37.7726L149.978 37.1571V37.1571L151.881 37.7726ZM148.599 42.8337L149.899 44.3533V44.3533L148.599 42.8337ZM137.141 44.5352L136.338 46.3671V46.3671L137.141 44.5352ZM132.53 40.6462L134.172 39.5043V39.5043L132.53 40.6462ZM130.485 26.8767L128.582 26.2612L130.485 26.8767ZM133.767 21.8156L132.466 20.296V20.296L133.767 21.8156ZM139.262 19.3912L139.556 21.3695L139.262 19.3912ZM145.225 20.1141L146.028 18.2822V18.2822L145.225 20.1141ZM149.836 24.0031L148.194 25.145V25.145L149.836 24.0031ZM147.432 25.7548L145.777 26.8769L145.782 26.8842L147.432 25.7548ZM143.988 22.7857L143.187 24.618L143.192 24.6204L143.988 22.7857ZM139.686 22.2434L139.392 20.2651L139.686 22.2434ZM135.714 24.0143L134.419 22.4901L134.415 22.494L135.714 24.0143ZM133.282 27.8562L131.374 27.2551L131.371 27.2636L133.282 27.8562ZM134.921 38.8963L133.266 40.0184L133.271 40.0257L134.921 38.8963ZM138.365 41.8655L137.564 43.6978L137.569 43.7002L138.365 41.8655ZM146.639 40.6368L145.344 39.1126L145.34 39.1164L146.639 40.6368ZM149.072 36.795L147.164 36.1939L147.161 36.2024L149.072 36.795ZM152.297 30.6742L150.318 30.968C150.678 33.3875 150.535 35.4333 149.978 37.1571L151.881 37.7726L153.784 38.3881C154.569 35.9585 154.704 33.272 154.275 30.3805L152.297 30.6742ZM151.881 37.7726L149.978 37.1571C149.409 38.9166 148.508 40.2789 147.298 41.3141L148.599 42.8337L149.899 44.3533C151.722 42.7937 153.009 40.7819 153.784 38.3881L151.881 37.7726ZM148.599 42.8337L147.299 41.3141C146.093 42.3456 144.619 43.0111 142.81 43.2798L143.103 45.2581L143.397 47.2364C145.883 46.8673 148.072 45.9166 149.899 44.3533L148.599 42.8337ZM143.103 45.2581L142.81 43.2798C141 43.5485 139.396 43.34 137.943 42.7033L137.141 44.5352L136.338 46.3671C138.54 47.332 140.912 47.6055 143.397 47.2364L143.103 45.2581ZM137.141 44.5352L137.943 42.7033C136.485 42.0644 135.227 41.0225 134.172 39.5043L132.53 40.6462L130.888 41.7881C132.324 43.8536 134.141 45.4044 136.338 46.3671L137.141 44.5352ZM132.53 40.6462L134.172 39.5043C133.137 38.0169 132.406 36.1008 132.047 33.6813L130.069 33.9751L128.091 34.2688C128.52 37.1604 129.43 39.6917 130.888 41.7881L132.53 40.6462ZM130.069 33.9751L132.047 33.6813C131.688 31.2618 131.83 29.216 132.388 27.4922L130.485 26.8767L128.582 26.2612C127.796 28.6909 127.661 31.3773 128.091 34.2688L130.069 33.9751ZM130.485 26.8767L132.388 27.4922C132.957 25.7327 133.857 24.3704 135.067 23.3352L133.767 21.8156L132.466 20.296C130.644 21.8556 129.356 23.8674 128.582 26.2612L130.485 26.8767ZM133.767 21.8156L135.067 23.3352C136.273 22.3037 137.747 21.6382 139.556 21.3695L139.262 19.3912L138.968 17.4129C136.483 17.782 134.293 18.7327 132.466 20.296L133.767 21.8156ZM139.262 19.3912L139.556 21.3695C141.365 21.1008 142.969 21.3093 144.422 21.946L145.225 20.1141L146.028 18.2822C143.825 17.3173 141.454 17.0438 138.968 17.4129L139.262 19.3912ZM145.225 20.1141L144.422 21.946C145.881 22.5849 147.138 23.6268 148.194 25.145L149.836 24.0031L151.478 22.8612C150.041 20.7957 148.225 19.2449 146.028 18.2822L145.225 20.1141ZM149.836 24.0031L148.194 25.145C149.228 26.6324 149.959 28.5485 150.318 30.968L152.297 30.6742L154.275 30.3805C153.846 27.4889 152.936 24.9576 151.478 22.8612L149.836 24.0031ZM149.346 31.1124L151.324 30.8186C150.969 28.4271 150.25 26.3317 149.083 24.6254L147.432 25.7548L145.782 26.8842C146.518 27.9611 147.075 29.4373 147.368 31.4062L149.346 31.1124ZM147.432 25.7548L149.088 24.6327C147.962 22.9713 146.532 21.7093 144.784 20.9509L143.988 22.7857L143.192 24.6204C144.148 25.0354 145.015 25.7528 145.777 26.8769L147.432 25.7548ZM143.988 22.7857L144.79 20.9533C143.084 20.2071 141.268 19.9865 139.392 20.2651L139.686 22.2434L139.98 24.2217C141.152 24.0476 142.205 24.1885 143.187 24.618L143.988 22.7857ZM139.686 22.2434L139.392 20.2651C137.516 20.5438 135.841 21.2827 134.419 22.4901L135.714 24.0143L137.009 25.5386C137.834 24.8376 138.807 24.3959 139.98 24.2217L139.686 22.2434ZM135.714 24.0143L134.415 22.494C132.974 23.7251 131.976 25.3442 131.374 27.2551L133.282 27.8562L135.189 28.4572C135.601 27.1517 136.224 26.2096 137.014 25.5347L135.714 24.0143ZM133.282 27.8562L131.371 27.2636C130.761 29.2317 130.686 31.4419 131.041 33.8307L133.019 33.5369L134.998 33.2431C134.705 31.2715 134.805 29.6946 135.192 28.4487L133.282 27.8562ZM133.019 33.5369L131.041 33.8307C131.396 36.2194 132.109 38.3127 133.266 40.0184L134.921 38.8963L136.577 37.7742C135.845 36.6944 135.291 35.2147 134.998 33.2431L133.019 33.5369ZM134.921 38.8963L133.271 40.0257C134.402 41.6793 135.828 42.9384 137.564 43.6978L138.365 41.8655L139.167 40.0331C138.215 39.6168 137.345 38.8965 136.572 37.7669L134.921 38.8963ZM138.365 41.8655L137.569 43.7002C139.28 44.4425 141.097 44.6628 142.974 44.3842L142.68 42.4059L142.386 40.4276C141.213 40.6017 140.154 40.4617 139.161 40.0307L138.365 41.8655ZM142.68 42.4059L142.974 44.3842C144.85 44.1055 146.523 43.3669 147.939 42.1571L146.639 40.6368L145.34 39.1164C144.525 39.8127 143.559 40.2534 142.386 40.4276L142.68 42.4059ZM146.639 40.6368L147.934 42.161C149.386 40.9275 150.387 39.3045 150.982 37.3876L149.072 36.795L147.161 36.2024C146.759 37.4994 146.139 38.4376 145.344 39.1126L146.639 40.6368ZM149.072 36.795L150.979 37.396C151.601 35.4241 151.68 33.2101 151.324 30.8186L149.346 31.1124L147.368 31.4062C147.66 33.375 147.556 34.9494 147.164 36.1939L149.072 36.795ZM183.827 38.6909L181.867 39.0909L182.267 41.0505L184.227 40.6505L183.827 38.6909ZM178.736 13.7506L178.336 11.791L176.376 12.191L176.776 14.1506L178.736 13.7506ZM187.163 12.0305L186.763 10.0709L187.163 12.0305ZM192.165 12.0497L191.597 13.9674L191.607 13.9702L192.165 12.0497ZM195.496 14.1986L193.943 15.4589V15.4589L195.496 14.1986ZM197.097 22.0411L195.177 21.479V21.479L197.097 22.0411ZM194.879 25.2845L196.134 26.8422L196.142 26.8357L194.879 25.2845ZM190.314 27.2185L189.914 25.2589L190.314 27.2185ZM183.494 28.6106L181.535 29.0106L181.935 30.9701L183.894 30.5702L183.494 28.6106ZM182.937 25.8827L182.537 23.9231L180.578 24.3231L180.978 26.2827L182.937 25.8827ZM192.755 23.2698L191.553 21.6716L191.547 21.6763L192.755 23.2698ZM194.195 21.2507L192.271 20.7063L192.268 20.7146L194.195 21.2507ZM194.228 18.5546L196.188 18.1546L194.228 18.5546ZM190.991 14.6869L190.464 16.6164L190.472 16.6185L190.48 16.6205L190.991 14.6869ZM187.612 14.7295L188.012 16.6891L187.612 14.7295ZM182.303 15.8133L181.903 13.8537L179.943 14.2537L180.343 16.2133L182.303 15.8133ZM186.847 38.0744L187.247 40.034L189.206 39.634L188.806 37.6745L186.847 38.0744ZM193.279 25.091L194.806 23.7987L194.04 22.8945L192.879 23.1314L193.279 25.091ZM201.704 35.0418L202.104 37.0014L205.412 36.3262L203.23 33.7495L201.704 35.0418ZM198.197 35.7577L196.662 37.0397L197.427 37.9561L198.597 37.7173L198.197 35.7577ZM189.869 25.787L189.469 23.8274L186.187 24.4975L188.334 27.069L189.869 25.787ZM183.827 38.6909L185.786 38.2909L180.695 13.3506L178.736 13.7506L176.776 14.1506L181.867 39.0909L183.827 38.6909ZM178.736 13.7506L179.136 15.7102L187.563 13.9901L187.163 12.0305L186.763 10.0709L178.336 11.791L178.736 13.7506ZM187.163 12.0305L187.563 13.9901C189.305 13.6345 190.621 13.6783 191.597 13.9674L192.165 12.0497L192.733 10.132C190.937 9.60006 188.918 9.63101 186.763 10.0709L187.163 12.0305ZM192.165 12.0497L191.607 13.9702C192.636 14.2693 193.386 14.7725 193.943 15.4589L195.496 14.1986L197.049 12.9383C195.934 11.5643 194.463 10.6349 192.723 10.1292L192.165 12.0497ZM195.496 14.1986L193.943 15.4589C194.551 16.2083 194.996 17.1524 195.24 18.3481L197.2 17.9481L199.159 17.5481C198.804 15.8049 198.113 14.2493 197.049 12.9383L195.496 14.1986ZM197.2 17.9481L195.24 18.3481C195.484 19.5444 195.442 20.5746 195.177 21.479L197.097 22.0411L199.016 22.6032C199.489 20.9892 199.515 19.2907 199.159 17.5481L197.2 17.9481ZM197.097 22.0411L195.177 21.479C194.933 22.3145 194.442 23.0617 193.617 23.7333L194.879 25.2845L196.142 26.8357C197.535 25.7013 198.523 24.2863 199.016 22.6032L197.097 22.0411ZM194.879 25.2845L193.625 23.7269C192.839 24.3599 191.646 24.9053 189.914 25.2589L190.314 27.2185L190.714 29.1781C192.846 28.743 194.697 27.999 196.134 26.8422L194.879 25.2845ZM190.314 27.2185L189.914 25.2589L183.094 26.651L183.494 28.6106L183.894 30.5702L190.714 29.1781L190.314 27.2185ZM183.494 28.6106L185.454 28.2106L184.897 25.4827L182.937 25.8827L180.978 26.2827L181.535 29.0106L183.494 28.6106ZM182.937 25.8827L183.337 27.8423L190.06 26.4702L189.66 24.5106L189.26 22.551L182.537 23.9231L182.937 25.8827ZM189.66 24.5106L190.06 26.4702C191.556 26.1648 192.906 25.6653 193.964 24.8633L192.755 23.2698L191.547 21.6763C191.14 21.9851 190.427 22.3128 189.26 22.551L189.66 24.5106ZM192.755 23.2698L193.958 24.868C195.001 24.0828 195.769 23.0549 196.122 21.7867L194.195 21.2507L192.268 20.7146C192.182 21.0245 191.99 21.3427 191.553 21.6716L192.755 23.2698ZM194.195 21.2507L196.12 21.7951C196.45 20.6266 196.441 19.3961 196.188 18.1546L194.228 18.5546L192.269 18.9546C192.423 19.7104 192.392 20.2772 192.271 20.7063L194.195 21.2507ZM194.228 18.5546L196.188 18.1546C195.934 16.9109 195.459 15.775 194.708 14.8166L193.134 16.0507L191.56 17.2849C191.86 17.6678 192.115 18.2012 192.269 18.9546L194.228 18.5546ZM193.134 16.0507L194.708 14.8166C193.887 13.7701 192.783 13.0918 191.502 12.7532L190.991 14.6869L190.48 16.6205C191.004 16.7591 191.329 16.99 191.56 17.2849L193.134 16.0507ZM190.991 14.6869L191.517 12.7574C190.202 12.3989 188.734 12.4592 187.212 12.7699L187.612 14.7295L188.012 16.6891C189.186 16.4496 189.97 16.4816 190.464 16.6164L190.991 14.6869ZM187.612 14.7295L187.212 12.7699L181.903 13.8537L182.303 15.8133L182.703 17.7729L188.012 16.6891L187.612 14.7295ZM182.303 15.8133L180.343 16.2133L184.887 38.4744L186.847 38.0744L188.806 37.6745L184.262 15.4133L182.303 15.8133ZM186.847 38.0744L186.447 36.1149L183.427 36.7313L183.827 38.6909L184.227 40.6505L187.247 40.034L186.847 38.0744ZM193.279 25.091L191.753 26.3833L200.177 36.3341L201.704 35.0418L203.23 33.7495L194.806 23.7987L193.279 25.091ZM201.704 35.0418L201.304 33.0822L197.797 33.7981L198.197 35.7577L198.597 37.7173L202.104 37.0014L201.704 35.0418ZM198.197 35.7577L199.732 34.4757L191.405 24.505L189.869 25.787L188.334 27.069L196.662 37.0397L198.197 35.7577ZM189.869 25.787L190.269 27.7466L193.679 27.0506L193.279 25.091L192.879 23.1314L189.469 23.8274L189.869 25.787ZM231.132 29.0364L231.532 30.9962L232.916 30.7143L233.113 29.3158L231.132 29.0364ZM227.966 29.6815L225.989 29.3808L225.558 32.2132L228.365 31.6413L227.966 29.6815ZM232.043 2.87353L231.644 0.913778L230.276 1.19248L230.066 2.5728L232.043 2.87353ZM235.161 2.23838L236.863 1.18811L236.13 -7.24792e-05L234.762 0.278631L235.161 2.23838ZM249.401 25.3149L249.8 27.2746L252.607 26.7027L251.103 24.2646L249.401 25.3149ZM246.234 25.96L244.521 26.9918L245.25 28.2016L246.633 27.9197L246.234 25.96ZM234.503 6.48205L236.217 5.45021L235.488 4.24038L234.104 4.5223L234.503 6.48205ZM234.309 6.52174L233.909 4.56199L232.525 4.84391L232.328 6.24237L234.309 6.52174ZM230.317 19.0552L229.918 17.0955L227.958 17.4947L228.357 19.4544L230.317 19.0552ZM243.08 16.4551L245.04 16.0558L244.641 14.0961L242.681 14.4953L243.08 16.4551ZM243.626 19.1344L244.025 21.0942L245.985 20.6949L245.586 18.7352L243.626 19.1344ZM230.863 21.7345L228.903 22.1338L229.302 24.0935L231.262 23.6943L230.863 21.7345ZM231.132 29.0364L230.733 27.0767L227.567 27.7218L227.966 29.6815L228.365 31.6413L231.532 30.9962L231.132 29.0364ZM227.966 29.6815L229.943 29.9822L234.02 3.17425L232.043 2.87353L230.066 2.5728L225.989 29.3808L227.966 29.6815ZM232.043 2.87353L232.442 4.83327L235.56 4.19813L235.161 2.23838L234.762 0.278631L231.644 0.913778L232.043 2.87353ZM235.161 2.23838L233.459 3.28864L247.699 26.3651L249.401 25.3149L251.103 24.2646L236.863 1.18811L235.161 2.23838ZM249.401 25.3149L249.001 23.3551L245.835 24.0002L246.234 25.96L246.633 27.9197L249.8 27.2746L249.401 25.3149ZM246.234 25.96L247.947 24.9281L236.217 5.45021L234.503 6.48205L232.79 7.51388L244.521 26.9918L246.234 25.96ZM234.503 6.48205L234.104 4.5223L233.909 4.56199L234.309 6.52174L234.708 8.48149L234.903 8.44179L234.503 6.48205ZM234.309 6.52174L232.328 6.24237L229.152 28.7571L231.132 29.0364L233.113 29.3158L236.289 6.80112L234.309 6.52174ZM230.317 19.0552L230.716 21.0149L243.479 18.4148L243.08 16.4551L242.681 14.4953L229.918 17.0955L230.317 19.0552ZM243.08 16.4551L241.12 16.8543L241.666 19.5336L243.626 19.1344L245.586 18.7352L245.04 16.0558L243.08 16.4551ZM243.626 19.1344L243.227 17.1747L230.463 19.7748L230.863 21.7345L231.262 23.6943L244.025 21.0942L243.626 19.1344ZM230.863 21.7345L232.822 21.3353L232.276 18.656L230.317 19.0552L228.357 19.4544L228.903 22.1338L230.863 21.7345Z" fill="black" mask="url(#path-2-outside-1_28_861)"/>
<path d="M85.4037 226.726H231.156C245.964 117.992 221.022 54.6294 155.552 54.6294C90.081 54.6294 66.6965 128.944 85.4037 226.726Z" fill="black" stroke="black"/>
<path d="M119.698 110.388C129.474 110.388 137.404 118.342 137.404 128.162C137.404 137.982 129.474 145.937 119.698 145.937C109.923 145.936 101.992 137.982 101.992 128.162C101.992 118.342 109.923 110.388 119.698 110.388Z" fill="white" stroke="black" stroke-width="2"/>
<ellipse cx="118.919" cy="128.944" rx="3.89711" ry="3.91129" fill="black"/>
<path d="M183.61 110.388C193.386 110.388 201.316 118.342 201.316 128.162C201.316 137.982 193.386 145.937 183.61 145.937C173.835 145.936 165.904 137.982 165.904 128.162C165.904 118.342 173.835 110.388 183.61 110.388Z" fill="white" stroke="black" stroke-width="2"/>
<ellipse cx="182.832" cy="128.944" rx="3.89711" ry="3.91129" fill="black"/>
<path d="M104.109 174.255L210.533 150.065C210.18 159.125 185.495 177.228 162.113 176.31C141.406 187.25 108.317 182.279 104.109 174.255Z" fill="white" stroke="black" stroke-width="2"/>
<path d="M118.919 171.186V175.88V180.573" stroke="black"/>
<path d="M132.169 167.275V175.097V182.92" stroke="black"/>
<path d="M147.758 164.146V172.751V181.355" stroke="black"/>
<path d="M161.787 161.017V168.839V176.662" stroke="black"/>
<path d="M175.816 157.888V166.493V175.097" stroke="black"/>
<path d="M191.405 154.759V161.799V168.839" stroke="black"/>
</svg>