<?xml version="1.0" encoding="UTF-8" standalone="no"?>
<svg
   height="24px"
   viewBox="0 -960 960 960"
   width="24px"
   fill="#e3e3e3"
   version="1.1"
   id="svg1"
   sodipodi:docname="OrderWhite.svg"
   inkscape:version="1.4.2 (f4327f4, 2025-05-13)"
   xmlns:inkscape="http://www.inkscape.org/namespaces/inkscape"
   xmlns:sodipodi="http://sodipodi.sourceforge.net/DTD/sodipodi-0.dtd"
   xmlns="http://www.w3.org/2000/svg"
   xmlns:svg="http://www.w3.org/2000/svg">
  <defs
     id="defs1" />
  <sodipodi:namedview
     id="namedview1"
     pagecolor="#ffffff"
     bordercolor="#000000"
     borderopacity="0.25"
     inkscape:showpageshadow="2"
     inkscape:pageopacity="0.0"
     inkscape:pagecheckerboard="0"
     inkscape:deskcolor="#d1d1d1"
     inkscape:zoom="32.208333"
     inkscape:cx="11.968952"
     inkscape:cy="11.968952"
     inkscape:window-width="1920"
     inkscape:window-height="991"
     inkscape:window-x="-9"
     inkscape:window-y="-9"
     inkscape:window-maximized="1"
     inkscape:current-layer="svg1" />
  <path
     d="m691-150 139-138-42-42-97 95-39-39-42 43 81 81ZM240-600h480v-80H240v80ZM720-40q-83 0-141.5-58.5T520-240q0-83 58.5-141.5T720-440q83 0 141.5 58.5T920-240q0 83-58.5 141.5T720-40ZM120-80v-680q0-33 23.5-56.5T200-840h560q33 0 56.5 23.5T840-760v267q-19-9-39-15t-41-9v-243H200v562h243q5 31 15.5 59T486-86l-6 6-60-60-60 60-60-60-60 60-60-60-60 60Zm120-200h203q3-21 9-41t15-39H240v80Zm0-160h284q38-37 88.5-58.5T720-520H240v80Zm-40 242v-562 562Z"
     id="path1" />
  <path
     style="fill:#000000;stroke-width:0.0310479"
     d="M 5.2470917,21.236742 4.5024208,20.491586 3.7647938,21.228733 3.0271669,21.96588 v -8.621774 c 0,-6.1015574 0.00989,-8.6698674 0.033845,-8.7863035 C 3.0796266,4.4673112 3.1513208,4.2750384 3.2203324,4.1305294 3.3898908,3.7754774 3.7693394,3.3897302 4.1138422,3.2221879 4.577271,2.9968083 4.0216258,3.0116429 12,3.0116429 c 7.978374,0 7.422729,-0.014835 7.886158,0.210545 0.343824,0.1672121 0.723614,0.5530404 0.894127,0.9083415 0.06935,0.144509 0.141632,0.3465728 0.160623,0.4490308 0.02437,0.1314902 0.03186,1.1963457 0.02547,3.6200743 l -0.0091,3.4337865 -0.369679,-0.148387 c -0.411422,-0.165142 -0.707035,-0.251445 -1.213762,-0.354352 l -0.341526,-0.06936 -0.0079,-3.0313087 -0.0079,-3.031309 H 11.999847 4.9831824 v 7.0323417 7.032341 h 3.0363564 3.0363562 l 0.08576,0.395861 c 0.16584,0.765525 0.477016,1.565492 0.836345,2.150064 0.142296,0.231494 0.142778,0.23322 0.08226,0.294403 -0.06059,0.06125 -0.06436,0.05806 -0.805717,-0.682813 L 10.509697,20.476548 9.7566328,21.229142 9.003568,21.981736 8.2508926,21.22906 7.4982172,20.476385 6.7449898,21.229142 5.9917625,21.981898 Z"
     id="path2"
     transform="matrix(40,0,0,40,0,-960)" />
  <path
     style="fill:#000000;stroke-width:0.0310479"
     d="M 6.007762,7.9948254 V 7.0168176 H 12 17.992238 V 7.9948254 8.9728331 H 12 6.007762 Z"
     id="path3"
     transform="matrix(40,0,0,40,0,-960)" />
  <path
     style="fill:#000000;stroke-width:0.0310479"
     d="m 6.007762,12 v -0.978008 l 5.580854,0.003 c 4.821245,0.0026 5.543995,0.0087 5.310054,0.04517 -1.173623,0.182732 -2.367235,0.724548 -3.361801,1.526019 -0.170763,0.13761 -0.337094,0.279814 -0.369624,0.316009 L 13.108095,12.978 H 9.5579305 6.007762 Z"
     id="path4"
     transform="matrix(40,0,0,40,0,-960)" />
  <path
     style="fill:#000000;stroke-width:0.0310479"
     d="m 6.007762,16.005175 v -0.978008 h 2.8098318 c 1.9242892,0 2.8098322,0.01018 2.8098322,0.03228 0,0.01776 -0.0267,0.08462 -0.05933,0.148576 -0.147321,0.288772 -0.388165,1.091333 -0.469823,1.565581 l -0.03608,0.209573 H 8.5349758 6.007762 Z"
     id="path5"
     transform="matrix(40,0,0,40,0,-960)" />
  <path
     style="fill:#000000;stroke-width:0.0310479"
     d="m 17.21382,22.927917 c -0.763925,-0.119094 -1.466023,-0.402712 -2.087368,-0.843206 -0.336566,-0.238604 -0.982932,-0.888407 -1.222654,-1.229154 -0.378836,-0.538488 -0.646844,-1.154375 -0.78663,-1.807692 -0.09514,-0.444631 -0.118949,-1.330809 -0.04861,-1.808996 0.155856,-1.059572 0.622675,-1.97717 1.402698,-2.757192 0.422112,-0.422113 0.813391,-0.707612 1.315154,-0.959613 1.347707,-0.676859 3.10961,-0.67309 4.461901,0.0095 0.863344,0.435814 1.784268,1.356739 2.220083,2.220083 0.579835,1.148647 0.676296,2.601548 0.256612,3.865138 -0.224891,0.677105 -0.636776,1.334984 -1.177785,1.881208 -0.790344,0.797961 -1.707531,1.273338 -2.75759,1.429256 -0.394959,0.05865 -1.201582,0.05897 -1.575809,6.24e-4 z m 1.821771,-4.405342 1.735431,-1.720633 -0.527557,-0.530423 c -0.290156,-0.291732 -0.537626,-0.526891 -0.549934,-0.522575 -0.01231,0.0043 -0.561958,0.537558 -1.221446,1.184983 l -1.199069,1.177135 -0.48622,-0.48622 -0.48622,-0.48622 -0.535878,0.535222 -0.535879,0.535222 1.016721,1.017071 c 0.559196,0.559389 1.025247,1.017071 1.03567,1.017071 0.01042,0 0.799893,-0.774285 1.754381,-1.720633 z"
     id="path6"
     transform="matrix(40,0,0,40,0,-960)" />
  <path
     style="fill:#ffffff;stroke-width:0.0310479"
     d="M 5.2626206,21.221224 C 4.8615954,20.819926 4.5195101,20.491591 4.5024309,20.491591 c -0.017079,0 -0.3573282,0.324839 -0.7561091,0.721863 l -0.7250561,0.721863 0.02099,-8.631307 C 3.0552943,7.9421406 3.0746269,4.6197813 3.0932932,4.5329884 3.1098197,4.4561449 3.1795067,4.2768471 3.2481532,4.1345488 3.4230359,3.7720319 3.78118,3.413055 4.1487918,3.2318158 4.3757832,3.1199049 4.4521618,3.0990629 4.7503235,3.0676707 c 0.4861925,-0.051189 14.0131605,-0.051189 14.4993535,0 0.298161,0.031392 0.37454,0.052234 0.601531,0.1641451 0.472665,0.2330319 0.892613,0.7320214 1.041014,1.2369501 0.04409,0.150014 0.04956,0.5535396 0.04956,3.6541255 V 11.60838 L 20.722137,11.5178 c -0.355022,-0.146399 -0.855041,-0.298608 -1.263384,-0.384583 -0.209457,-0.0441 -0.387594,-0.08018 -0.395861,-0.08018 -0.0083,0 -0.01503,-1.2763462 -0.01503,-2.8363251 0,-1.5599789 -0.009,-2.922204 -0.01995,-3.0271669 L 19.007972,4.9987064 H 11.995577 4.9831825 v 7.0323416 7.032342 h 3.0265754 3.0265751 l 0.01528,0.06986 c 0.228029,1.04219 0.50727,1.800773 0.930135,2.526795 0.09718,0.166855 0.105098,0.195274 0.06391,0.229461 -0.03994,0.03315 -0.159182,-0.07252 -0.792084,-0.701895 l -0.74507,-0.740916 -0.7524679,0.751998 -0.752468,0.751998 -0.7526754,-0.752675 -0.7526754,-0.752676 -0.7532299,0.75276 -0.75323,0.752759 z"
     id="path7"
     transform="matrix(40,0,0,40,0,-960)" />
  <path
     style="fill:#ffffff;stroke-width:0.0310479"
     d="M 6.007762,7.9948254 V 7.0168177 H 12 17.992238 V 7.9948254 8.9728332 H 12 6.007762 Z"
     id="path8"
     transform="matrix(40,0,0,40,0,-960)" />
  <path
     style="fill:#ffffff;stroke-width:0.0310479"
     d="m 6.007762,11.994937 v -0.983071 l 1.4204399,0.02055 c 0.7812419,0.0113 3.2157831,0.02161 5.4100911,0.0229 l 3.98965,0.0023 -0.278376,0.05995 c -1.156621,0.249087 -2.292378,0.829148 -3.268615,1.669369 l -0.221947,0.191024 H 9.5333835 6.007762 Z"
     id="path9"
     transform="matrix(40,0,0,40,0,-960)" />
  <path
     style="fill:#ffffff;stroke-width:0.0310479"
     d="m 6.007762,16.000302 v -0.983245 l 2.7849994,0.02162 c 1.5317496,0.01189 2.7907646,0.02739 2.7978116,0.03443 0.007,0.007 -0.03654,0.128829 -0.09686,0.270628 -0.137942,0.32427 -0.288394,0.832889 -0.378395,1.279198 l -0.06952,0.344725 -2.5190194,0.0079 -2.5190196,0.0079 z"
     id="path10"
     transform="matrix(40,0,0,40,0,-960)" />
  <path
     style="fill:#ffffff;stroke-width:0.0310479"
     d="m 17.153946,22.900286 c -0.682546,-0.119931 -1.312463,-0.370122 -1.89392,-0.752227 -0.395759,-0.260074 -1.139899,-1.006122 -1.416641,-1.420271 -0.30095,-0.450378 -0.564444,-1.068777 -0.701881,-1.647256 -0.05871,-0.247132 -0.06699,-0.374722 -0.06856,-1.057246 -0.002,-0.858416 0.03365,-1.112236 0.236975,-1.688398 0.383219,-1.085904 1.25129,-2.108142 2.276113,-2.680344 1.569662,-0.876409 3.639636,-0.814526 5.081925,0.151928 0.657458,0.440551 1.272971,1.084358 1.655843,1.731959 0.52636,0.8903 0.745846,2.077191 0.58866,3.183238 -0.177619,1.249828 -0.788674,2.306254 -1.830956,3.165457 -0.573204,0.472519 -1.274409,0.810774 -2.033635,0.981007 -0.313648,0.07033 -1.556585,0.09143 -1.89392,0.03215 z M 19.06339,18.521724 20.80207,16.801925 20.3674,16.3626 c -0.239069,-0.241628 -0.487105,-0.481483 -0.551192,-0.53301 l -0.116522,-0.09369 -0.100813,0.08417 c -0.05545,0.0463 -0.60125,0.573806 -1.212894,1.172247 l -1.112082,1.088075 -0.471724,-0.470988 c -0.259448,-0.259043 -0.485382,-0.470987 -0.502075,-0.470987 -0.04102,0 -1.07112,1.030842 -1.07112,1.071887 0,0.05062 2.001036,2.033005 2.051173,2.032057 0.02451,-4.64e-4 0.826964,-0.774753 1.783239,-1.720642 z"
     id="path11"
     transform="matrix(40,0,0,40,0,-960)" />
</svg>
