<?xml version="1.0" encoding="UTF-8" standalone="no"?>
<svg
   height="24px"
   viewBox="0 -960 960 960"
   width="24px"
   fill="#e3e3e3"
   version="1.1"
   id="svg1"
   sodipodi:docname="order_approve_24dp_E3E3E3_FILL0_wght400_GRAD0_opsz24.svg"
   inkscape:version="1.4.2 (f4327f4, 2025-05-13)"
   xmlns:inkscape="http://www.inkscape.org/namespaces/inkscape"
   xmlns:sodipodi="http://sodipodi.sourceforge.net/DTD/sodipodi-0.dtd"
   xmlns="http://www.w3.org/2000/svg"
   xmlns:svg="http://www.w3.org/2000/svg">
  <defs
     id="defs1" />
  <sodipodi:namedview
     id="namedview1"
     pagecolor="#ffffff"
     bordercolor="#000000"
     borderopacity="0.25"
     inkscape:showpageshadow="2"
     inkscape:pageopacity="0.0"
     inkscape:pagecheckerboard="0"
     inkscape:deskcolor="#d1d1d1"
     inkscape:zoom="32.208333"
     inkscape:cx="12"
     inkscape:cy="12"
     inkscape:window-width="1920"
     inkscape:window-height="991"
     inkscape:window-x="-9"
     inkscape:window-y="-9"
     inkscape:window-maximized="1"
     inkscape:current-layer="svg1" />
  <path
     d="m691-150 139-138-42-42-97 95-39-39-42 43 81 81ZM240-600h480v-80H240v80ZM720-40q-83 0-141.5-58.5T520-240q0-83 58.5-141.5T720-440q83 0 141.5 58.5T920-240q0 83-58.5 141.5T720-40ZM120-80v-680q0-33 23.5-56.5T200-840h560q33 0 56.5 23.5T840-760v267q-19-9-39-15t-41-9v-243H200v562h243q5 31 15.5 59T486-86l-6 6-60-60-60 60-60-60-60 60-60-60-60 60Zm120-200h203q3-21 9-41t15-39H240v80Zm0-160h284q38-37 88.5-58.5T720-520H240v80Zm-40 242v-562 562Z"
     id="path1" />
  <path
     style="fill:#000000;stroke-width:0.0310479"
     d="M 5.2470917,21.236742 4.5024208,20.491586 3.7647938,21.228733 3.0271669,21.96588 v -8.621774 c 0,-6.1015574 0.00989,-8.6698674 0.033845,-8.7863035 C 3.0796266,4.4673112 3.1513208,4.2750384 3.2203324,4.1305294 3.3898908,3.7754774 3.7693394,3.3897302 4.1138422,3.2221879 4.577271,2.9968083 4.0216258,3.0116429 12,3.0116429 c 7.978374,0 7.422729,-0.014835 7.886158,0.210545 0.343824,0.1672121 0.723614,0.5530404 0.894127,0.9083415 0.06935,0.144509 0.141632,0.3465728 0.160623,0.4490308 0.02437,0.1314902 0.03186,1.1963457 0.02547,3.6200743 l -0.0091,3.4337865 -0.369679,-0.148387 c -0.411422,-0.165142 -0.707035,-0.251445 -1.213762,-0.354352 l -0.341526,-0.06936 -0.0079,-3.0313087 -0.0079,-3.031309 H 11.999847 4.9831824 v 7.0323417 7.032341 h 3.0363564 3.0363562 l 0.08576,0.395861 c 0.16584,0.765525 0.477016,1.565492 0.836345,2.150064 0.142296,0.231494 0.142778,0.23322 0.08226,0.294403 -0.06059,0.06125 -0.06436,0.05806 -0.805717,-0.682813 L 10.509697,20.476548 9.7566328,21.229142 9.003568,21.981736 8.2508926,21.22906 7.4982172,20.476385 6.7449898,21.229142 5.9917625,21.981898 Z"
     id="path2"
     transform="matrix(40,0,0,40,0,-960)" />
  <path
     style="fill:#000000;stroke-width:0.0310479"
     d="M 6.007762,7.9948254 V 7.0168176 H 12 17.992238 V 7.9948254 8.9728331 H 12 6.007762 Z"
     id="path3"
     transform="matrix(40,0,0,40,0,-960)" />
  <path
     style="fill:#000000;stroke-width:0.0310479"
     d="m 6.007762,12 v -0.978008 l 5.580854,0.003 c 4.821245,0.0026 5.543995,0.0087 5.310054,0.04517 -1.173623,0.182732 -2.367235,0.724548 -3.361801,1.526019 -0.170763,0.13761 -0.337094,0.279814 -0.369624,0.316009 L 13.108095,12.978 H 9.5579305 6.007762 Z"
     id="path4"
     transform="matrix(40,0,0,40,0,-960)" />
  <path
     style="fill:#000000;stroke-width:0.0310479"
     d="m 6.007762,16.005175 v -0.978008 h 2.8098318 c 1.9242892,0 2.8098322,0.01018 2.8098322,0.03228 0,0.01776 -0.0267,0.08462 -0.05933,0.148576 -0.147321,0.288772 -0.388165,1.091333 -0.469823,1.565581 l -0.03608,0.209573 H 8.5349758 6.007762 Z"
     id="path5"
     transform="matrix(40,0,0,40,0,-960)" />
  <path
     style="fill:#000000;stroke-width:0.0310479"
     d="m 17.21382,22.927917 c -0.763925,-0.119094 -1.466023,-0.402712 -2.087368,-0.843206 -0.336566,-0.238604 -0.982932,-0.888407 -1.222654,-1.229154 -0.378836,-0.538488 -0.646844,-1.154375 -0.78663,-1.807692 -0.09514,-0.444631 -0.118949,-1.330809 -0.04861,-1.808996 0.155856,-1.059572 0.622675,-1.97717 1.402698,-2.757192 0.422112,-0.422113 0.813391,-0.707612 1.315154,-0.959613 1.347707,-0.676859 3.10961,-0.67309 4.461901,0.0095 0.863344,0.435814 1.784268,1.356739 2.220083,2.220083 0.579835,1.148647 0.676296,2.601548 0.256612,3.865138 -0.224891,0.677105 -0.636776,1.334984 -1.177785,1.881208 -0.790344,0.797961 -1.707531,1.273338 -2.75759,1.429256 -0.394959,0.05865 -1.201582,0.05897 -1.575809,6.24e-4 z m 1.821771,-4.405342 1.735431,-1.720633 -0.527557,-0.530423 c -0.290156,-0.291732 -0.537626,-0.526891 -0.549934,-0.522575 -0.01231,0.0043 -0.561958,0.537558 -1.221446,1.184983 l -1.199069,1.177135 -0.48622,-0.48622 -0.48622,-0.48622 -0.535878,0.535222 -0.535879,0.535222 1.016721,1.017071 c 0.559196,0.559389 1.025247,1.017071 1.03567,1.017071 0.01042,0 0.799893,-0.774285 1.754381,-1.720633 z"
     id="path6"
     transform="matrix(40,0,0,40,0,-960)" />
</svg>
