<?xml version="1.0" encoding="UTF-8" standalone="no"?>
<svg
   height="24px"
   viewBox="0 -960 960 960"
   width="24px"
   fill="#000000"
   version="1.1"
   id="svg1"
   sodipodi:docname="profileWhite.svg"
   inkscape:version="1.4.2 (f4327f4, 2025-05-13)"
   xmlns:inkscape="http://www.inkscape.org/namespaces/inkscape"
   xmlns:sodipodi="http://sodipodi.sourceforge.net/DTD/sodipodi-0.dtd"
   xmlns="http://www.w3.org/2000/svg"
   xmlns:svg="http://www.w3.org/2000/svg">
  <defs
     id="defs1" />
  <sodipodi:namedview
     id="namedview1"
     pagecolor="#ffffff"
     bordercolor="#000000"
     borderopacity="0.25"
     inkscape:showpageshadow="2"
     inkscape:pageopacity="0.0"
     inkscape:pagecheckerboard="0"
     inkscape:deskcolor="#d1d1d1"
     inkscape:zoom="32.208333"
     inkscape:cx="12"
     inkscape:cy="12"
     inkscape:window-width="1920"
     inkscape:window-height="991"
     inkscape:window-x="-9"
     inkscape:window-y="-9"
     inkscape:window-maximized="1"
     inkscape:current-layer="svg1" />
  <path
     d="M200-246q54-53 125.5-83.5T480-360q83 0 154.5 30.5T760-246v-514H200v514Zm379-235q41-41 41-99t-41-99q-41-41-99-41t-99 41q-41 41-41 99t41 99q41 41 99 41t99-41ZM200-120q-33 0-56.5-23.5T120-200v-560q0-33 23.5-56.5T200-840h560q33 0 56.5 23.5T840-760v560q0 33-23.5 56.5T760-120H200Zm69-80h422q-44-39-99.5-59.5T480-280q-56 0-112.5 20.5T269-200Zm168.5-337.5Q420-555 420-580t17.5-42.5Q455-640 480-640t42.5 17.5Q540-605 540-580t-17.5 42.5Q505-520 480-520t-42.5-17.5ZM480-503Z"
     id="path1" />
  <path
     style="fill:#ffffff;stroke-width:0.0310479"
     d="M 4.7192755,20.966923 C 4.027519,20.873515 3.3495691,20.309243 3.1158638,19.632369 L 3.0426908,19.42044 V 12 4.5795602 L 3.1158638,4.3676314 C 3.2766869,3.9018441 3.6798989,3.4477047 4.1293661,3.2261196 4.5941513,2.9969829 4.0136859,3.0127212 12,3.0127212 c 7.986314,0 7.405849,-0.015738 7.870634,0.2133984 0.449467,0.2215851 0.852679,0.6757245 1.013502,1.1415118 l 0.07317,0.2119288 V 12 19.42044 l -0.07317,0.211929 c -0.200096,0.579533 -0.716161,1.073882 -1.339505,1.283139 -0.163979,0.05505 -0.459991,0.05746 -7.451487,0.06066 -4.0043989,0.0018 -7.3226395,-0.0023 -7.3738685,-0.0092 z M 17.16947,18.887197 c -0.417267,-0.374663 -1.035177,-0.774319 -1.676585,-1.084393 -0.907644,-0.438778 -1.840498,-0.697299 -2.84088,-0.78729 -1.935474,-0.174109 -4.062387,0.455406 -5.5575677,1.644908 -0.1451488,0.115474 -0.2905224,0.23941 -0.3230528,0.275413 l -0.059146,0.06546 5.2907115,-0.0013 5.290711,-0.0013 z M 5.3032414,17.595492 c 1.4213304,-1.280163 3.1313136,-2.120296 4.9425546,-2.428331 0.710223,-0.120786 1.152404,-0.149589 2.010882,-0.130984 1.377014,0.02984 2.415845,0.244668 3.593257,0.743074 1.068071,0.452121 2.22324,1.200524 2.966048,1.921622 0.08592,0.08341 0.166255,0.15165 0.178525,0.15165 0.01227,0 0.02231,-2.892109 0.02231,-6.426909 V 4.9987063 H 12 4.9831824 v 6.4269077 c 0,3.5348 0.0078,6.426909 0.017342,6.426909 0.00954,0 0.1457608,-0.115664 0.302717,-0.257031 z"
     id="path2"
     transform="matrix(40,0,0,40,0,-960)" />
  <path
     style="fill:#ffffff;stroke-width:0.0310479"
     d="m 11.386334,12.933475 c -1.337375,-0.254047 -2.4125714,-1.246279 -2.7610085,-2.547964 -0.075931,-0.28366 -0.08311,-0.360093 -0.08311,-0.8848642 0,-0.5251045 0.00714,-0.6010239 0.083235,-0.8848641 0.3502881,-1.3066224 1.4504705,-2.3191601 2.7654205,-2.5451155 0.529111,-0.09092 1.208163,-0.045646 1.695803,0.1130638 0.672785,0.2189679 1.339775,0.719475 1.77894,1.3349092 0.202607,0.2839281 0.41185,0.7350086 0.508934,1.0971425 0.07609,0.2838402 0.08324,0.3597596 0.08324,0.8848641 0,0.5247712 -0.0072,0.6012042 -0.08311,0.8848642 -0.320767,1.198315 -1.301394,2.177939 -2.48981,2.487261 -0.38558,0.10036 -1.130843,0.130549 -1.49853,0.0607 z m 1.113728,-1.999861 c 0.439572,-0.152646 0.78055,-0.491699 0.929303,-0.92406 0.376746,-1.0950294 -0.526356,-2.1817732 -1.665871,-2.0046169 -0.936229,0.1455524 -1.50485,1.0978012 -1.194383,2.0001909 0.174818,0.508115 0.585368,0.864711 1.135934,0.98665 0.184358,0.04083 0.596845,0.01065 0.795017,-0.05816 z"
     id="path3"
     transform="matrix(40,0,0,40,0,-960)" />
</svg>
