<?xml version="1.0" encoding="UTF-8" standalone="no"?>
<svg
   height="24px"
   viewBox="0 -960 960 960"
   width="24px"
   fill="#000000"
   version="1.1"
   id="svg1"
   sodipodi:docname="searchWhite.svg"
   inkscape:version="1.4.2 (f4327f4, 2025-05-13)"
   xmlns:inkscape="http://www.inkscape.org/namespaces/inkscape"
   xmlns:sodipodi="http://sodipodi.sourceforge.net/DTD/sodipodi-0.dtd"
   xmlns="http://www.w3.org/2000/svg"
   xmlns:svg="http://www.w3.org/2000/svg">
  <defs
     id="defs1" />
  <sodipodi:namedview
     id="namedview1"
     pagecolor="#ffffff"
     bordercolor="#000000"
     borderopacity="0.25"
     inkscape:showpageshadow="2"
     inkscape:pageopacity="0.0"
     inkscape:pagecheckerboard="0"
     inkscape:deskcolor="#d1d1d1"
     inkscape:zoom="32.208333"
     inkscape:cx="12"
     inkscape:cy="12"
     inkscape:window-width="1920"
     inkscape:window-height="991"
     inkscape:window-x="-9"
     inkscape:window-y="-9"
     inkscape:window-maximized="1"
     inkscape:current-layer="svg1" />
  <path
     d="M784-120 532-372q-30 24-69 38t-83 14q-109 0-184.5-75.5T120-580q0-109 75.5-184.5T380-840q109 0 184.5 75.5T640-580q0 44-14 83t-38 69l252 252-56 56ZM380-400q75 0 127.5-52.5T560-580q0-75-52.5-127.5T380-760q-75 0-127.5 52.5T200-580q0 75 52.5 127.5T380-400Z"
     id="path1" />
  <path
     style="fill:#ffffff;stroke-width:0.0310479"
     d="m 16.453229,17.819373 -3.137936,-3.137936 -0.34764,0.234938 c -0.768845,0.519592 -1.61085,0.851771 -2.53557,1.000308 -0.4642006,0.07456 -1.4123446,0.07437 -1.921674,-4.01e-4 C 7.1574126,15.717668 6.0208119,15.162432 5.0313895,14.21676 3.9815162,13.213309 3.3679186,12.08147 3.1127167,10.677585 3.050995,10.338049 3.0429438,10.194798 3.0448244,9.469599 3.0467975,8.7087049 3.0532197,8.6147907 3.1302222,8.2207855 3.4164105,6.7564213 4.1606238,5.5034125 5.3377392,4.5040576 6.8279224,3.2389124 8.8425007,2.748473 10.882277,3.1542665 c 2.113546,0.4204694 3.955956,2.0133614 4.719707,4.0805161 0.407642,1.1033166 0.487868,2.5761668 0.203753,3.7406374 -0.164164,0.672835 -0.504981,1.445713 -0.855704,1.940492 -0.102888,0.145149 -0.2036,0.296184 -0.223804,0.335634 -0.03488,0.06811 0.121822,0.23029 3.105038,3.213615 l 3.141774,3.141888 -0.675654,0.67513 c -0.37161,0.371322 -0.682532,0.67513 -0.690938,0.67513 -0.0084,0 -1.427355,-1.412071 -3.15322,-3.137936 z M 10.328092,13.94205 c 0.411331,-0.07067 0.745633,-0.174773 1.111311,-0.346079 0.761957,-0.356948 1.506365,-1.037509 1.967923,-1.799136 0.636565,-1.050409 0.784848,-2.5513007 0.374091,-3.7864857 C 13.378877,6.7998716 12.300818,5.7014358 11.069903,5.247583 10.561182,5.0600115 10.253311,5.0142303 9.5006468,5.0142303 c -0.60234,0 -0.721277,0.00856 -1.0065339,0.072415 C 7.5880039,5.28949 6.8687069,5.7052365 6.1983238,6.4135889 5.5948779,7.051213 5.2250792,7.7706508 5.0583935,8.6313066 c -0.086731,0.4478235 -0.079387,1.3608456 0.014485,1.8007764 0.1999507,0.937069 0.6254773,1.693159 1.3260607,2.35619 0.6552403,0.620118 1.4013379,1.002404 2.2478918,1.151777 0.4611922,0.08138 1.2140153,0.08227 1.681261,0.002 z"
     id="path2"
     transform="matrix(40,0,0,40,0,-960)" />
</svg>
