<?xml version="1.0" encoding="UTF-8" standalone="no"?>
<svg
   height="24px"
   viewBox="0 -960 960 960"
   width="24px"
   fill="#e3e3e3"
   version="1.1"
   id="svg1"
   sodipodi:docname="user_attributes_24dp_E3E3E3_FILL0_wght400_GRAD0_opsz24.svg"
   inkscape:version="1.4.2 (f4327f4, 2025-05-13)"
   xmlns:inkscape="http://www.inkscape.org/namespaces/inkscape"
   xmlns:sodipodi="http://sodipodi.sourceforge.net/DTD/sodipodi-0.dtd"
   xmlns="http://www.w3.org/2000/svg"
   xmlns:svg="http://www.w3.org/2000/svg">
  <defs
     id="defs1" />
  <sodipodi:namedview
     id="namedview1"
     pagecolor="#ffffff"
     bordercolor="#000000"
     borderopacity="0.25"
     inkscape:showpageshadow="2"
     inkscape:pageopacity="0.0"
     inkscape:pagecheckerboard="0"
     inkscape:deskcolor="#d1d1d1"
     inkscape:zoom="32.208333"
     inkscape:cx="12"
     inkscape:cy="12"
     inkscape:window-width="1920"
     inkscape:window-height="991"
     inkscape:window-x="-9"
     inkscape:window-y="-9"
     inkscape:window-maximized="1"
     inkscape:current-layer="svg1" />
  <path
     d="M560-680v-80h320v80H560Zm0 160v-80h320v80H560Zm0 160v-80h320v80H560Zm-325-75q-35-35-35-85t35-85q35-35 85-35t85 35q35 35 35 85t-35 85q-35 35-85 35t-85-35ZM80-160v-76q0-21 10-40t28-30q45-27 95.5-40.5T320-360q56 0 106.5 13.5T522-306q18 11 28 30t10 40v76H80Zm86-80h308q-35-20-74-30t-80-10q-41 0-80 10t-74 30Zm182.5-251.5Q360-503 360-520t-11.5-28.5Q337-560 320-560t-28.5 11.5Q280-537 280-520t11.5 28.5Q303-480 320-480t28.5-11.5ZM320-520Zm0 280Z"
     id="path1" />
  <path
     style="fill:#000000;stroke-width:0.0310479"
     d="M 7.3773758,13.923582 C 6.775381,13.792981 6.3164247,13.540512 5.8800155,13.099896 5.4784035,12.694413 5.2266509,12.245385 5.0846996,11.681365 5.0014331,11.35052 5.0108685,10.588503 5.1024494,10.247871 5.3850872,9.1966078 6.2320767,8.3547427 7.2652005,8.0982045 c 0.4153987,-0.103149 1.0928271,-0.097312 1.5077955,0.012992 1.0704758,0.2845453 1.923939,1.1773794 2.143821,2.2427155 0.06531,0.316448 0.0779,0.889277 0.02597,1.18243 C 10.737941,12.692865 9.820209,13.655091 8.6778754,13.91106 8.35806,13.98272 7.6800708,13.98925 7.3773728,13.92358 Z M 8.4324177,11.915608 C 9.1335307,11.590403 9.2132532,10.593013 8.5726783,10.160836 8.3763027,10.028347 8.217586,9.989052 7.9338475,10.002675 c -0.2853077,0.0137 -0.4689089,0.09532 -0.6674877,0.296746 -0.1856282,0.188287 -0.2650737,0.402899 -0.2650416,0.715974 2.03e-5,0.198712 0.015044,0.271154 0.088295,0.425743 0.089403,0.188677 0.2651967,0.375586 0.4366304,0.464237 0.2539555,0.131326 0.6358123,0.135638 0.906174,0.01023 z"
     id="path2"
     transform="matrix(40,0,0,40,0,-960)" />
  <path
     style="fill:#000000;stroke-width:0.0310479"
     d="m 2.0102927,18.884864 c 0.014604,-1.239207 0.021119,-1.286449 0.238687,-1.730918 0.1409042,-0.287853 0.3917442,-0.580021 0.6387177,-0.743953 0.459315,-0.304876 1.3005741,-0.692554 1.9899924,-0.917049 0.9451508,-0.307769 1.7305922,-0.433304 2.8590837,-0.456959 1.1583968,-0.02428 1.8682277,0.05082 2.8505485,0.301615 0.885256,0.22601 1.977995,0.693039 2.545925,1.088112 0.334386,0.232611 0.61039,0.613336 0.753006,1.038712 l 0.08328,0.248383 0.01083,1.141009 0.01083,1.141009 H 7.9941973 1.9972116 Z M 11.827684,17.979109 C 11.811462,17.96335 11.658473,17.880435 11.48771,17.794854 9.6464162,16.872053 7.3950473,16.734615 5.3905791,17.422643 5.0507553,17.539287 4.14489,17.952013 4.14489,17.990199 c 0,0.0097 1.7352652,0.01756 3.8561449,0.01756 2.3564911,0 3.8446741,-0.01114 3.8266491,-0.02865 z"
     id="path3"
     transform="matrix(40,0,0,40,0,-960)" />
  <path
     style="fill:#000000;stroke-width:0.0310479"
     d="m 14.018111,14.002587 v -0.993531 h 3.989651 3.989651 v 0.993531 0.993532 h -3.989651 -3.989651 z"
     id="path4"
     transform="matrix(40,0,0,40,0,-960)" />
  <path
     style="fill:#000000;stroke-width:0.0310479"
     d="M 14.018111,9.9974127 V 9.003881 h 3.989651 3.989651 v 0.9935317 0.9935313 h -3.989651 -3.989651 z"
     id="path5"
     transform="matrix(40,0,0,40,0,-960)" />
  <path
     style="fill:#000000;stroke-width:0.0310479"
     d="M 14.018111,6.007762 V 5.0297542 h 3.989651 3.989651 V 6.007762 6.9857697 h -3.989651 -3.989651 z"
     id="path6"
     transform="matrix(40,0,0,40,0,-960)" />
</svg>
