<?xml version="1.0" encoding="UTF-8" standalone="no"?>
<svg
   height="24"
   viewBox="0 -960 960 960"
   width="24"
   fill="#e3e3e3"
   version="1.1"
   id="svg1"
   sodipodi:docname="delete_24dp_E3E3E3_FILL0_wght400_GRAD0_opsz24.svg"
   xmlns:inkscape="http://www.inkscape.org/namespaces/inkscape"
   xmlns:sodipodi="http://sodipodi.sourceforge.net/DTD/sodipodi-0.dtd"
   xmlns="http://www.w3.org/2000/svg"
   xmlns:svg="http://www.w3.org/2000/svg">
  <defs
     id="defs1" />
  <sodipodi:namedview
     id="namedview1"
     pagecolor="#ffffff"
     bordercolor="#000000"
     borderopacity="0.25"
     inkscape:showpageshadow="2"
     inkscape:pageopacity="0.0"
     inkscape:pagecheckerboard="0"
     inkscape:deskcolor="#d1d1d1">
    <inkscape:page
       x="0"
       y="0"
       width="960"
       height="960"
       id="page2"
       margin="0"
       bleed="0" />
  </sodipodi:namedview>
  <path
     d="m 280,-120 q -33,0 -56.5,-23.5 Q 200,-167 200,-200 v -520 h -40 v -80 h 200 v -40 h 240 v 40 h 200 v 80 h -40 v 520 q 0,33 -23.5,56.5 Q 713,-120 680,-120 Z M 680,-720 H 280 v 520 h 400 z m -320,440 h 80 v -360 h -80 z m 160,0 h 80 V -640 H 520 Z M 280,-720 v 520 z"
     id="path1" />
  <path
     style="fill:#ffffff;stroke-width:1.24192"
     d="m 262.82745,-122.37952 c -22.93071,-4.97556 -44.08539,-21.8786 -54.38125,-43.45172 -8.33476,-17.464 -7.83164,1.12652 -7.85542,-290.26192 l -0.0216,-264.21732 h -19.87063 -19.87064 v -39.74127 -39.74127 h 99.97413 99.97413 v -19.87063 -19.87063 H 480 599.2238 v 19.87063 19.87063 h 99.97412 99.97412 v 39.74127 39.74127 h -19.8706 -19.87064 l -0.0216,264.21732 c -0.0238,291.38844 0.4792,272.79792 -7.85544,290.26192 -10.42944,21.85304 -31.50208,38.53664 -54.94844,43.50376 -12.46012,2.6396 -421.599,2.5908 -433.77791,-0.052 z M 679.94824,-460.12936 V -720.31048 H 480 280.05175 v 260.18112 260.18112 H 480 679.94824 Z"
     id="path2" />
  <path
     style="fill:#ffffff;stroke-width:1.24192"
     d="m 360.7762,-460.12936 v -179.45667 h 39.12031 39.12029 v 179.45667 179.45664 H 399.89651 360.7762 Z"
     id="path3" />
  <path
     style="fill:#ffffff;stroke-width:1.24192"
     d="m 520.9832,-460.12936 v -179.45667 h 39.12028 39.12032 v 179.45667 179.45664 H 560.10348 520.9832 Z"
     id="path4" />
</svg>
