<?xml version="1.0" encoding="UTF-8" standalone="no"?>
<svg
   height="24px"
   viewBox="0 -960 960 960"
   width="24px"
   fill="#e3e3e3"
   version="1.1"
   id="svg1"
   sodipodi:docname="inventory_24dp_E3E3E3_FILL0_wght400_GRAD0_opsz24.svg"
   inkscape:version="1.4.2 (f4327f4, 2025-05-13)"
   xmlns:inkscape="http://www.inkscape.org/namespaces/inkscape"
   xmlns:sodipodi="http://sodipodi.sourceforge.net/DTD/sodipodi-0.dtd"
   xmlns="http://www.w3.org/2000/svg"
   xmlns:svg="http://www.w3.org/2000/svg">
  <defs
     id="defs1" />
  <sodipodi:namedview
     id="namedview1"
     pagecolor="#ffffff"
     bordercolor="#000000"
     borderopacity="0.25"
     inkscape:showpageshadow="2"
     inkscape:pageopacity="0.0"
     inkscape:pagecheckerboard="0"
     inkscape:deskcolor="#d1d1d1"
     inkscape:zoom="32.208333"
     inkscape:cx="12"
     inkscape:cy="12"
     inkscape:window-width="1920"
     inkscape:window-height="991"
     inkscape:window-x="-9"
     inkscape:window-y="-9"
     inkscape:window-maximized="1"
     inkscape:current-layer="svg1" />
  <path
     d="M620-163 450-333l56-56 114 114 226-226 56 56-282 282Zm220-397h-80v-200h-80v120H280v-120h-80v560h240v80H200q-33 0-56.5-23.5T120-200v-560q0-33 23.5-56.5T200-840h167q11-35 43-57.5t70-22.5q40 0 71.5 22.5T594-840h166q33 0 56.5 23.5T840-760v200ZM508.5-771.5Q520-783 520-800t-11.5-28.5Q497-840 480-840t-28.5 11.5Q440-817 440-800t11.5 28.5Q463-760 480-760t28.5-11.5Z"
     id="path1" />
  <path
     style="fill:#000000;stroke-width:0.0310479"
     d="M 4.5724769,20.938442 C 4.1623757,20.850386 3.8403953,20.658699 3.5256819,20.315245 3.3124422,20.082531 3.1173195,19.715924 3.0610118,19.442198 c -0.0478,-0.232369 -0.0478,-14.6520271 0,-14.8843956 C 3.0796266,4.4673113 3.1513208,4.2750383 3.2203324,4.1305295 3.3898908,3.7754774 3.7693394,3.3897302 4.1138422,3.2221879 4.5426936,3.0136243 4.5693422,3.0116824 7.0077466,3.0113065 L 9.1901682,3.01097 9.274822,2.7862095 C 9.5520481,2.0501608 10.301441,1.3989705 11.184005,1.127211 11.435162,1.0498748 11.499508,1.0431505 12,1.0419387 c 0.474032,-0.00115 0.57429,0.00762 0.785997,0.068747 0.374394,0.1080972 0.60019,0.2126179 0.926699,0.4289675 0.483719,0.3205194 0.833011,0.7430061 1.043392,1.2620346 l 0.08479,0.2091905 2.166897,3.826e-4 c 2.421227,4.274e-4 2.449862,0.00253 2.878381,0.2109275 0.344503,0.1675423 0.723951,0.5532895 0.89351,0.9083416 0.06901,0.1445088 0.140705,0.3367818 0.15932,0.4272729 0.02287,0.1111834 0.03385,1.019711 0.03385,2.8020699 V 9.9974127 H 19.994825 19.016818 V 7.4980595 4.9987063 H 18.007762 16.998706 V 6.4890039 7.9793014 H 12 7.0012937 V 6.4890039 4.9987063 H 5.992238 4.9831824 V 12 19.001294 h 2.996119 2.9961186 v 0.993531 0.993532 l -3.0970241,-0.0025 c -2.5759869,-0.0021 -3.1321686,-0.01008 -3.305919,-0.04738 z M 12.491142,4.8903875 c 0.56175,-0.3067104 0.694577,-1.0889543 0.265871,-1.5657782 -0.08039,-0.089414 -0.213652,-0.1912594 -0.316052,-0.241545 -0.256088,-0.125756 -0.625834,-0.125756 -0.881922,0 -0.222859,0.1094386 -0.43677,0.3431402 -0.51095,0.5582219 -0.150286,0.4357487 0.0084,0.9563376 0.363044,1.1910321 0.206505,0.1366585 0.332766,0.1679972 0.635439,0.1577207 0.239356,-0.00813 0.303114,-0.022418 0.44457,-0.099652 z"
     id="path2"
     transform="matrix(40,0,0,40,0,-960)" />
  <path
     style="fill:#000000;stroke-width:0.0310479"
     d="m 13.381648,17.790445 -2.1111,-2.111271 0.690751,-0.690751 0.690751,-0.690751 1.420365,1.420364 1.420364,1.420365 2.82557,-2.825443 2.825569,-2.825443 0.690554,0.691065 0.690553,0.691065 -3.516139,3.516036 -3.516138,3.516035 z"
     id="path3"
     transform="matrix(40,0,0,40,0,-960)" />
</svg>
