<?xml version="1.0" encoding="UTF-8" standalone="no"?>
<svg
   height="24px"
   viewBox="0 -960 960 960"
   width="24px"
   fill="#000000"
   version="1.1"
   id="svg1"
   sodipodi:docname="ShopCartWhite.svg"
   inkscape:version="1.4.2 (f4327f4, 2025-05-13)"
   xmlns:inkscape="http://www.inkscape.org/namespaces/inkscape"
   xmlns:sodipodi="http://sodipodi.sourceforge.net/DTD/sodipodi-0.dtd"
   xmlns="http://www.w3.org/2000/svg"
   xmlns:svg="http://www.w3.org/2000/svg">
  <defs
     id="defs1" />
  <sodipodi:namedview
     id="namedview1"
     pagecolor="#ffffff"
     bordercolor="#000000"
     borderopacity="0.25"
     inkscape:showpageshadow="2"
     inkscape:pageopacity="0.0"
     inkscape:pagecheckerboard="0"
     inkscape:deskcolor="#d1d1d1"
     inkscape:zoom="32.208333"
     inkscape:cx="12"
     inkscape:cy="12"
     inkscape:window-width="1920"
     inkscape:window-height="991"
     inkscape:window-x="-9"
     inkscape:window-y="-9"
     inkscape:window-maximized="1"
     inkscape:current-layer="svg1" />
  <path
     d="M223.5-103.5Q200-127 200-160t23.5-56.5Q247-240 280-240t56.5 23.5Q360-193 360-160t-23.5 56.5Q313-80 280-80t-56.5-23.5Zm400 0Q600-127 600-160t23.5-56.5Q647-240 680-240t56.5 23.5Q760-193 760-160t-23.5 56.5Q713-80 680-80t-56.5-23.5ZM246-720l96 200h280l110-200H246Zm-38-80h590q23 0 35 20.5t1 41.5L692-482q-11 20-29.5 31T622-440H324l-44 80h480v80H280q-45 0-68-39.5t-2-78.5l54-98-144-304H40v-80h130l38 80Zm134 280h280-280Z"
     id="path1" />
  <path
     style="fill:#ffffff;stroke-width:0.0310479"
     d="M 6.5420532,16.93583 C 5.9747662,16.812647 5.5238561,16.430732 5.22869,15.823426 4.9952889,15.343203 4.9581358,14.86795 5.1180478,14.408123 c 0.04106,-0.118069 0.3905061,-0.787733 0.7765453,-1.48814 0.3860396,-0.700408 0.7056503,-1.286375 0.710246,-1.302149 0.0046,-0.01577 -0.801993,-1.7418498 -1.79242,-3.8357232 L 3.0116429,3.9750683 2.0103493,3.9745975 1.0090556,3.9741268 V 2.9958421 2.0175574 l 1.6187983,0.00804 1.6187983,0.00804 0.4668801,0.9853977 0.4668804,0.9853977 7.5003503,0.00813 7.50035,0.00813 0.161876,0.073197 c 0.09126,0.041266 0.224262,0.1398929 0.304888,0.2260885 0.319915,0.3420154 0.396325,0.7535168 0.212504,1.1444401 -0.136619,0.2905416 -3.569198,6.4714526 -3.707135,6.6752906 -0.222453,0.328737 -0.570623,0.594718 -0.96912,0.74035 l -0.225523,0.08242 -3.937558,0.01552 -3.9375569,0.01552 -0.5401267,0.978007 c -0.2970697,0.537905 -0.5405635,0.995473 -0.5410972,1.016818 -7.731e-4,0.03092 1.2176582,0.03881 5.9912678,0.03881 h 5.992238 v 0.978008 0.978007 l -6.124192,-0.0025 c -5.0540129,-0.002 -6.1583249,-0.0099 -6.3195248,-0.04488 z M 16.935051,8.5212751 c 0.756408,-1.3753946 1.36888,-2.5071244 1.361049,-2.5149553 -0.0078,-0.00783 -2.74773,-0.01071 -6.088665,-0.0064 l -6.0744281,0.00784 1.2025779,2.5068618 1.2025782,2.5068624 3.5108,2.53e-4 3.510801,2.53e-4 z"
     id="path2"
     transform="matrix(40,0,0,40,0,-960)" />
  <path
     style="fill:#ffffff;stroke-width:0.0310479"
     d="M 6.5160985,21.920453 C 5.0554932,21.537516 4.5235513,19.751748 5.548634,18.672602 c 0.2738751,-0.288319 0.5274595,-0.456445 0.8472263,-0.56171 0.2088398,-0.06875 0.3052261,-0.08194 0.6054334,-0.08285 0.3187142,-9.68e-4 0.3855331,0.0089 0.6223286,0.09208 0.3388887,0.119022 0.5643972,0.269779 0.8317143,0.55602 0.7834867,0.83895 0.6822502,2.149033 -0.2214386,2.865591 -0.1058754,0.08395 -0.2671911,0.1903 -0.3584792,0.236332 -0.3946357,0.198991 -0.9296559,0.255033 -1.3593203,0.142385 z"
     id="path3"
     transform="matrix(40,0,0,40,0,-960)" />
  <path
     style="fill:#ffffff;stroke-width:0.0310479"
     d="m 16.513181,21.920369 c -1.020452,-0.267526 -1.661495,-1.279153 -1.457168,-2.299553 0.07302,-0.36468 0.229491,-0.667166 0.48865,-0.944671 0.267318,-0.286241 0.492826,-0.436998 0.831715,-0.55602 0.236795,-0.08317 0.303614,-0.09305 0.622328,-0.09208 0.300208,9.13e-4 0.396594,0.0141 0.605434,0.08285 0.319767,0.105265 0.573351,0.273391 0.847226,0.56171 0.380503,0.400571 0.55646,0.880904 0.524169,1.430891 -0.0304,0.517762 -0.217268,0.92622 -0.596804,1.304495 -0.488594,0.486969 -1.208392,0.684665 -1.86555,0.512381 z"
     id="path4"
     transform="matrix(40,0,0,40,0,-960)" />
</svg>
